<?xml version="1.0" encoding="utf-8"?>
<!-- Generator: Adobe Illustrator 21.0.0, SVG Export Plug-In . SVG Version: 6.00 Build 0)  -->
<svg version="1.1" id="图层_1" xmlns="http://www.w3.org/2000/svg" xmlns:xlink="http://www.w3.org/1999/xlink" x="0px" y="0px"
	 viewBox="0 0 191.1 33.2" style="enable-background:new 0 0 191.1 33.2;" xml:space="preserve">
<style type="text/css">
	.st0{fill-rule:evenodd;clip-rule:evenodd;}
	.st1{fill-rule:evenodd;clip-rule:evenodd;fill:#9FA0A0;}
	.st2{fill-rule:evenodd;clip-rule:evenodd;fill:#898989;}
	.st3{fill-rule:evenodd;clip-rule:evenodd;fill:#0066A9;}
	.st4{fill-rule:evenodd;clip-rule:evenodd;fill:#D7000F;}
	.st5{fill-rule:evenodd;clip-rule:evenodd;fill:#FFFFFF;}
	.st6{fill-rule:evenodd;clip-rule:evenodd;fill:#3E3A39;}
</style>
<path class="st4" d="M0,1.4c10.4,0,20.8,0,31.3,0v3.5c-10.5,0-20.9,0-31.3,0V1.4L0,1.4z M31.3,20.7v-1.6h-3.9v1.6
	c-3.3,0-6.6,0-9.8,0v-3c4.5,0,9.1,0,13.7,0v-3.5c-4.6,0-9.2,0-13.7,0v-2.9c4.5,0,9.1,0,13.7,0V7.8c-10.5,0-20.9,0-31.3,0v3.5
	c4.5,0,9.1,0,13.7,0v2.9c-4.6,0-9.2,0-13.7,0v3.5c4.5,0,9.1,0,13.7,0v3c-4.6,0-9.2,0-13.7,0v3.5c10.4,0,20.8,0,31.3,0V20.7
	L31.3,20.7z M31.3,27.1v3.5c-10.5,0-20.9,0-31.3,0v-3.5C10.4,27.1,20.8,27.1,31.3,27.1z"/>
<g>
	<path class="st5" d="M173.8,29v-1.4h1.2l-1.2-3v0.1v-2.1h1.2l3.2,8.1h-2.1l-0.6-1.6H173.8L173.8,29z M187.2,26.3h-0.8v-0.4l2.3-2.4
		h0.3v1.6h1.9v1.2H189v1.9c0,0.4,0,0.7,0.2,0.9c0.1,0.1,0.3,0.2,0.6,0.2c0.2,0,0.3,0,0.4-0.1c0.2,0,0.4-0.1,0.6-0.2v1.3
		c-0.3,0.1-0.5,0.2-0.9,0.2c-0.3,0.1-0.5,0.1-0.8,0.1c-0.7,0-1.2-0.2-1.5-0.5c-0.3-0.4-0.4-1-0.4-1.9V26.3L187.2,26.3z M180.3,30.6
		v-5.5h1.7v1.5c0.4-0.6,0.6-1,0.9-1.2c0.3-0.3,0.5-0.4,0.9-0.4c0.2,0,0.3,0,0.4,0.1c0.2,0.1,0.4,0.2,0.6,0.4l-0.4,1.5
		c-0.2-0.1-0.4-0.2-0.5-0.3c-0.1-0.1-0.3-0.1-0.4-0.1c-0.4,0-0.7,0.2-0.9,0.4c-0.3,0.3-0.4,0.7-0.6,1.2v2.4H180.3z M173.8,22.5v2.1
		l-1.2,2.9h1.2V29h-1.8l-0.7,1.6h-2.1l3.5-8.1H173.8L173.8,22.5z M154.6,30.7v-1.3c0.4,0,0.6-0.1,0.9-0.4c0.2-0.4,0.4-0.7,0.4-1.2
		c0-0.4-0.2-0.9-0.4-1.2c-0.3-0.3-0.5-0.4-0.9-0.4V25l0,0c0.9,0,1.6,0.3,2.1,0.8c0.6,0.5,0.9,1.2,0.9,2c0,0.8-0.3,1.5-0.9,2
		C156.2,30.4,155.5,30.7,154.6,30.7L154.6,30.7L154.6,30.7z M160.3,30.6v-4.3h-0.7v-1.2h0.7v-0.6c0-0.7,0.3-1.2,0.6-1.6
		c0.4-0.4,1-0.4,1.7-0.4c0.2,0,0.3,0,0.4,0c0.1,0,0.3,0,0.4,0.1v1.2c-0.1,0-0.3,0-0.4,0c-0.1,0-0.2,0-0.3,0c-0.3,0-0.5,0-0.6,0.2
		c-0.1,0.2-0.2,0.4-0.2,0.9v0.3h0.7v1.2H162v4.3H160.3z M154.6,25v1.2c-0.4,0-0.7,0.2-0.9,0.4c-0.3,0.3-0.4,0.7-0.4,1.2
		c0,0.4,0.1,0.8,0.4,1.2c0.2,0.3,0.5,0.4,0.9,0.4v1.3c-0.9,0-1.6-0.3-2.2-0.8c-0.5-0.5-0.8-1.2-0.8-2c0-0.9,0.3-1.5,0.8-2
		C153,25.3,153.7,25,154.6,25L154.6,25z M122.3,30.7v-1.2c0.2,0,0.4,0,0.6,0c0.3,0,0.6,0,1-0.2c0.4-0.1,0.7-0.3,1.1-0.5V30
		c-0.4,0.3-0.8,0.4-1.2,0.5c-0.4,0.1-0.9,0.2-1.3,0.2C122.4,30.7,122.3,30.7,122.3,30.7L122.3,30.7z M122.3,28.1v-0.8h1.1
		c-0.1-0.4-0.2-0.6-0.4-0.9c-0.2-0.2-0.4-0.3-0.7-0.3l0,0V25l0,0c0.9,0,1.5,0.3,2,0.8c0.5,0.5,0.7,1.3,0.7,2.3l0,0H122.3L122.3,28.1
		z M141.2,33.2h-1.9l1.6-3.5l-2-4.6h1.9l1.1,2.7l1.2-2.7h1.8L141.2,33.2L141.2,33.2z M127.7,30.6v-5.5h1.7v0.7
		c0.3-0.3,0.5-0.5,0.9-0.6c0.3-0.2,0.6-0.2,1-0.2c0.4,0,0.7,0.1,1,0.2c0.3,0.2,0.5,0.4,0.6,0.8c0.4-0.4,0.7-0.6,1.1-0.8
		c0.3-0.1,0.6-0.2,1.1-0.2c0.6,0,1.1,0.2,1.3,0.5c0.4,0.4,0.5,0.9,0.5,1.6v3.5h-1.8v-3.3c0-0.4,0-0.7-0.2-0.9
		c-0.1-0.2-0.3-0.3-0.5-0.3c-0.3,0-0.5,0.1-0.7,0.3c-0.2,0.2-0.4,0.4-0.5,0.6v3.5h-1.7v-3.3c0-0.4-0.1-0.7-0.2-0.9
		c-0.2-0.2-0.4-0.3-0.6-0.3c-0.3,0-0.4,0.1-0.6,0.3c-0.3,0.2-0.4,0.4-0.6,0.6v3.5H127.7z M122.3,25v1.2c-0.3,0-0.5,0.1-0.7,0.3
		c-0.2,0.3-0.4,0.5-0.4,0.9h1.1v0.8h-1.1l0,0c0,0.4,0.1,0.8,0.4,1.1c0.2,0.2,0.4,0.3,0.6,0.4v1.2c-0.9,0-1.6-0.3-2-0.8
		c-0.5-0.5-0.8-1.2-0.8-2.1c0-0.8,0.3-1.5,0.7-2C120.7,25.3,121.5,25,122.3,25L122.3,25z M114,30.7v-1.3c0.1,0,0.1,0,0.2,0
		c0.2,0,0.4,0,0.4-0.1c0.2-0.1,0.4-0.2,0.5-0.3v-2.3c-0.2-0.2-0.3-0.2-0.4-0.3c-0.2-0.1-0.4-0.1-0.5-0.1c-0.1,0-0.1,0-0.2,0V25
		c0.2,0,0.4,0.1,0.4,0.1c0.3,0.1,0.5,0.3,0.7,0.4v-3h1.7v8.1h-1.6v-0.4c-0.3,0.2-0.5,0.3-0.7,0.4C114.4,30.6,114.2,30.7,114,30.7z
		 M114,25v1.3c-0.4,0-0.6,0.2-0.8,0.4c-0.3,0.4-0.4,0.7-0.4,1.2c0,0.4,0.1,0.8,0.4,1.1c0.2,0.3,0.4,0.4,0.8,0.4v1.3
		c-0.1,0-0.3,0-0.4,0c-0.8,0-1.4-0.3-1.9-0.8c-0.5-0.5-0.7-1.2-0.7-2c0-0.9,0.2-1.5,0.7-2c0.4-0.5,1.1-0.8,1.9-0.8
		C113.7,25,113.9,25,114,25L114,25z M105.8,30.5v-0.9c0.1,0,0.2-0.1,0.3-0.1c0.1-0.1,0.3-0.2,0.4-0.3v-1.3c-0.3,0.1-0.5,0.2-0.7,0.3
		v-0.9c0.2-0.1,0.4-0.2,0.7-0.3c0,0,0,0,0-0.1c0,0,0,0,0-0.1c0-0.3-0.1-0.4-0.3-0.5c-0.1-0.1-0.3-0.2-0.4-0.2V25c0,0,0.1,0,0.2,0
		c0.8,0,1.4,0.1,1.8,0.4c0.4,0.3,0.5,0.8,0.5,1.4v2.2c0,0.1,0,0.2,0,0.3c0.1,0.1,0.1,0.1,0.2,0.1c0.1,0,0.2,0,0.3,0
		c0.1-0.1,0.2-0.1,0.3-0.2v1c-0.3,0.2-0.5,0.3-0.8,0.4c-0.3,0.1-0.4,0.1-0.7,0.1c-0.3,0-0.4-0.1-0.6-0.2c-0.2-0.1-0.3-0.3-0.3-0.4
		C106.3,30.2,106,30.4,105.8,30.5L105.8,30.5z M105.8,25v1.2c-0.2,0-0.3,0-0.4,0c-0.4,0-0.6,0-1,0.2c-0.3,0.2-0.6,0.4-0.9,0.7v-1.4
		c0.4-0.2,0.7-0.4,1.1-0.4C105,25.1,105.3,25,105.8,25L105.8,25z M105.8,27.3v0.9c-0.3,0.1-0.4,0.2-0.4,0.3
		c-0.3,0.2-0.4,0.4-0.4,0.5c0,0.2,0.1,0.4,0.2,0.4s0.3,0.2,0.4,0.2c0.1,0,0.1,0,0.2,0v0.9c-0.3,0.1-0.6,0.2-0.9,0.2
		c-0.5,0-1-0.1-1.2-0.4c-0.3-0.3-0.4-0.7-0.4-1.2c0-0.4,0.2-0.8,0.5-1.1C104.2,27.8,104.8,27.6,105.8,27.3L105.8,27.3z M89.9,29
		v-1.4h1.2l-1.2-3v0.1v-2.1h1.2l3.2,8.1h-2.1L91.6,29H89.9L89.9,29z M101,30.3c-0.3,0.1-0.5,0.2-0.8,0.3c-0.4,0.1-0.6,0.1-1,0.1
		c-1,0-1.8-0.3-2.3-0.8c-0.6-0.4-0.9-1.2-0.9-2c0-0.9,0.3-1.6,0.9-2c0.5-0.5,1.3-0.8,2.2-0.8c0.4,0,0.6,0,0.9,0.1
		c0.3,0,0.6,0.1,0.9,0.3v1.3c-0.4-0.1-0.6-0.2-0.8-0.3c-0.3-0.1-0.5-0.1-0.7-0.1c-0.4,0-0.9,0.1-1.2,0.4c-0.3,0.3-0.4,0.7-0.4,1.2
		c0,0.4,0.2,0.9,0.4,1.2c0.3,0.3,0.7,0.4,1.2,0.4c0.2,0,0.4,0,0.7-0.1c0.3-0.1,0.5-0.2,0.8-0.3V30.3z M89.9,22.5v2.1l-1.2,2.9h1.2
		V29h-1.8l-0.7,1.6h-2.1l3.5-8.1H89.9L89.9,22.5z M75.6,30.5v-0.9c0.1,0,0.2-0.1,0.3-0.1c0.2-0.1,0.4-0.2,0.5-0.3v-1.3
		c-0.4,0.1-0.5,0.2-0.8,0.3v-0.9c0.3-0.1,0.5-0.2,0.8-0.3c0,0,0,0,0-0.1c0,0,0,0,0-0.1c0-0.3-0.1-0.4-0.3-0.5
		c-0.2-0.1-0.3-0.2-0.5-0.2V25c0.1,0,0.2,0,0.3,0c0.8,0,1.3,0.1,1.7,0.4c0.4,0.3,0.5,0.8,0.5,1.4v2.2c0,0.1,0.1,0.2,0.1,0.3
		c0,0.1,0.1,0.1,0.2,0.1c0.1,0,0.2,0,0.3,0c0-0.1,0.2-0.1,0.3-0.2v1c-0.3,0.2-0.6,0.3-0.8,0.4c-0.3,0.1-0.5,0.1-0.7,0.1
		c-0.3,0-0.5-0.1-0.6-0.2c-0.2-0.1-0.3-0.3-0.3-0.4C76.3,30.2,76,30.4,75.6,30.5L75.6,30.5z M49.6,29.9c-0.5,0.3-1.1,0.5-1.5,0.6
		c-0.5,0.2-1.1,0.2-1.6,0.2c-0.6,0-1.2-0.1-1.8-0.3c-0.5-0.2-1-0.4-1.4-0.9c-0.4-0.4-0.7-0.8-0.9-1.3c-0.2-0.5-0.4-1.1-0.4-1.7
		c0-1.2,0.4-2.2,1.2-3c0.9-0.8,2-1.2,3.4-1.2c0.4,0,1,0.1,1.4,0.2c0.4,0.1,1,0.3,1.4,0.4v1.9c-0.4-0.3-0.9-0.5-1.3-0.7
		c-0.4-0.1-1-0.2-1.4-0.2c-0.8,0-1.4,0.3-1.9,0.7c-0.5,0.4-0.7,1-0.7,1.8c0,0.8,0.2,1.4,0.6,1.9c0.4,0.4,1.1,0.6,1.9,0.6
		c0.4,0,1-0.1,1.4-0.3c0.5-0.2,1-0.4,1.5-0.7V29.9L49.6,29.9z M75.6,25v1.2c-0.1,0-0.2,0-0.3,0c-0.4,0-0.6,0-1,0.2
		c-0.4,0.2-0.6,0.4-1,0.7l0.1-1.4c0.3-0.2,0.6-0.4,1.1-0.4C74.9,25.1,75.3,25,75.6,25L75.6,25z M75.6,27.3v0.9
		c-0.2,0.1-0.4,0.2-0.4,0.3c-0.2,0.2-0.3,0.4-0.3,0.5c0,0.2,0,0.4,0.2,0.4c0.1,0.1,0.3,0.2,0.4,0.2h0.1v0.9
		c-0.3,0.1-0.5,0.2-0.9,0.2c-0.5,0-0.9-0.1-1.2-0.4c-0.3-0.3-0.4-0.7-0.4-1.2c0-0.4,0.3-0.8,0.6-1.1C74.1,27.8,74.8,27.6,75.6,27.3
		L75.6,27.3z M65.2,30.6v-5.5H67v0.7c0.3-0.3,0.5-0.5,0.8-0.6c0.4-0.2,0.7-0.2,1.1-0.2c0.6,0,1.1,0.2,1.3,0.5
		c0.4,0.4,0.5,0.9,0.5,1.6v3.5h-1.8v-3.3c0-0.4,0-0.6-0.2-0.8c-0.1-0.2-0.3-0.4-0.5-0.4c-0.3,0-0.5,0.1-0.7,0.3
		c-0.2,0.2-0.4,0.4-0.5,0.6v3.5H65.2L65.2,30.6z M60.5,23.3c0-0.3,0.1-0.4,0.3-0.6c0.2-0.2,0.4-0.3,0.7-0.3c0.3,0,0.4,0.1,0.6,0.3
		c0.2,0.2,0.3,0.4,0.3,0.6c0,0.3-0.1,0.4-0.3,0.6c-0.2,0.2-0.4,0.3-0.6,0.3c-0.3,0-0.5-0.1-0.7-0.3C60.6,23.7,60.5,23.6,60.5,23.3
		L60.5,23.3z M60.6,30.6v-5.5h1.8v5.5H60.6L60.6,30.6z M52.2,30.6v-8.1h1.7v3.3c0.4-0.4,0.6-0.5,0.9-0.6c0.3-0.2,0.6-0.2,1-0.2
		c0.6,0,1.1,0.2,1.4,0.5c0.4,0.4,0.4,0.9,0.4,1.6v3.5H56v-3.3c0-0.4-0.1-0.6-0.2-0.8c-0.2-0.2-0.4-0.4-0.6-0.4
		c-0.2,0-0.4,0.1-0.6,0.3c-0.3,0.2-0.4,0.4-0.6,0.6v3.5H52.2z"/>
	<g>
		<path class="st5" d="M97.8,2.7c0.2,0,0.7,0.2,0.7,0.1c0.3,0.2,0.6,0.4,0.8,0.6c0.4,0.3,0.4,0.5,0.4,0.9c0,0.2-0.1,0.4-0.2,0.5
			c-0.4,0.3-1.1,0.4-1.7,0.2c-0.4-0.4-0.6-0.7-0.7-1.3H97c-0.2-0.4-0.6-0.6-0.3-1.1C97.2,2.7,97.3,2.6,97.8,2.7z"/>
		<path class="st5" d="M124.1,4c0.2,0.8-0.1,1.7-1,1.9c-0.4,0.7,0.4,0.7,0.4,1.5c0.3-0.2,0.7-0.4,0.9-0.6c0.3-0.3,0.9,0.1,1.1-0.2
			c0,0,0.1-0.4,0.1-0.4c0,0-0.1-0.1-0.1-0.2c-0.1-0.7,0.5-1.2,1.3-1.7c0.4,0,0.6,0.8,0.9,0.9c0.1,0.1,0.2,0.2,0.3-0.1
			c0.4-0.2,0.4-1.2,1-1.2c0.9-0.1,0.5,0.9,1.3,1c0.8-0.3,0.7,0.4,0.5,0.8c-0.5,0.4-1.2,1.1-2.1,1.1c-0.3,0.1-0.8,0.2-0.9,0.6
			c0,0.4-0.1,0.8,0,1.1c0.1,0.3,0.5,0.2,0.5,0.4c0.5,0.4,1.1,1.2,0.8,2.1c-0.2,0.4,0,1.1-0.7,1.1c-1.1,0.1-0.6-1.1-1-0.9
			c-0.3,0.8-0.1,1.5-0.2,2.3v0.1c-0.2,0.4-0.4,1.1-0.4,1.8c-0.4,0.3-0.3,1.1-0.8,1.1c-0.5-0.2-0.9-0.4-1-1.2
			c-0.2-0.1-0.4-0.7-0.4-0.9c0.2-0.5,0.4-1,0.4-1.5c0-0.3,0.1-0.8-0.1-1.2c-0.4,0-0.4,0.5-0.5,0.8c-0.1,0.5-0.5,0.8-0.9,1.2
			c-0.2,0.2-0.4,0.1-0.6,0c-0.4-0.2,0-0.4-0.2-0.8c0.4-1.3,1.2-2,1.8-3.3c0.1-0.3,0.4-0.4,0.4-0.7c0-0.4,0.4-1.1,0.2-1.2
			c-0.4-0.2-1,0.5-1.6,0.1c-0.6,0.2-0.3,1.2-0.7,1.4c-0.4,0.5-1.1,1-0.7,1.8c-0.1,1.6-0.1,2.7-0.3,4.4c-0.3,0.3-0.4,1.2-0.7,1.2
			c-0.7,0-1.2-1.2-1.3-1.9c0.4-0.6,0.2-1.2,0.4-1.8c0.2-0.4,0-0.7,0.1-1.2c-0.1-0.2-0.1-0.4-0.2-0.4c-0.5,0.3-1.2,1.4-1.9,1.2
			c0-0.2-0.4-0.5-0.2-0.7c0.4-0.2,0.6-0.7,0.9-1c0.3-0.3,0.5-0.4,0.8-0.4c0-0.3,0.3-0.4,0.4-0.5c0.2-0.1,0.1-0.4,0.4-0.4
			c0.3-0.4,0.6-0.7,0.8-1.1c0.1-0.4,0-0.9,0.1-1.3c0-0.5-0.7-0.4-0.8-0.8c-0.2-0.6,0.4-0.6,0.4-1c0.3,0,0.6-0.2,0.8-0.3
			c0.3-0.5-0.1-0.9-0.2-1.4c0-0.3,0.1-0.4,0.3-0.5c0.6-0.1,1-0.2,1.3,0.4L124.1,4z"/>
		<path class="st5" d="M133,3.5c0.2,0.1,0.4,0.4,0.6,0.2c0.3,0.3,0.7,0.3,0.9,0.6c-0.1,0.5-0.1,1.5-0.7,1.6c-0.3,0.1-0.6-0.1-0.9,0
			c-0.2,0.1-0.4,0.4-0.5,0.5c-0.4-0.1-0.5,0.5-0.9,0.1c-0.2-0.2,0-0.3,0.1-0.5c-0.2-0.1,0.3-0.4,0.3-0.5c0.1-0.2,0-0.3,0.1-0.4
			c0-0.5-0.6-0.6-0.4-1.2c0.2-0.4,0.4-0.6,0.7-0.7C132.4,3.2,132.8,3.2,133,3.5z"/>
		<path class="st5" d="M104.2,4.7c-0.1,0-0.3,1-0.3,1.2c-0.4,0.4-1,0.4-1.4,0.7c-0.3,0.1-0.4,0.1-0.5,0.3c-0.1,0.3-0.2,0.5,0.1,0.6
			c0.7-0.1,0.9-0.4,1.3-0.5c0.2,0,0,0.8,0.1,1c-0.2,0.4-0.4,0.5-0.9,0.8C102.4,8.8,102,8.9,102,9c-0.3,0.3-0.4,0.1-0.4,0.6
			c0,0.2-0.4,0.4-0.2,0.4l0.9-0.4c0.4-0.1,0.4-0.4,1-0.3c0.2,0.1,0.6-0.4,0.6-0.1c0,0.2,0.2,0.7,0,1c-0.2,0.3-0.4,0.2-0.6,0.3
			l-0.3-0.1c-0.4,0-0.7,0.5-1.1,0.8c-0.1,0.1-0.3,0.3-0.5,0.4c-0.4,0.3-0.8,0.1-0.8,0.4c0.2,0.1,0.2,0.6,0.4,0.6
			c0.4,0.2,0.9,0,1.2-0.2c0.7,0,1.8-0.4,2.2,0.2c0.3,0.4-0.5,1.1-1.1,1.1c-0.6,0.3-1,0.5-1.6,0.9v0.1c0.1,0.1-0.4,0.1-0.2,0.2
			c0.8,0.4,2.3,0.7,3,1.2c0.5,0.3,1.1,0.7,1.8,0.8c0.5,0.2,1.4,0.4,1.9,0.4c0.9,0,2.9,0.3,4-0.1c0.3,0.1-0.1,0.8-0.7,1
			c-0.3,0.4-0.4,0.7-0.9,1.1c-0.4,0.6-1.2,0.3-1.9,0.3c-0.9-0.2-2,0.1-2.9-0.5c-0.5,0-1.2-0.1-1.3-0.5c-0.4-0.2-0.4-0.4-0.6-0.6
			c-0.4-0.4-0.9-1-1.5-1.3c-0.3-0.1-0.2-0.4-0.4-0.4c-1.2-0.5-1.3-1.4-1.6-1c-0.2,0.4-0.6,1.1-1.1,1.5c-0.1,0.3-0.6,0.4-0.6,0.7
			c-0.2,0.2-0.5,0.3-0.7,0.4c-0.3,0.4-0.5,0.9-1,1.1c-0.6,0.1-1,0.1-1.6,0.2c-0.4,0.1-1.2,0.1-1.3-0.2c0-0.2,0.7-0.5,0.9-0.6
			c0.3-0.2,0.6-0.3,0.9-0.5c0.2-0.3,0.5-0.5,0.7-0.9c0.1-0.1,0.4-0.2,0.4-0.4c0.4-0.3,0.5-0.7,0.8-1c0.1-0.2,0.1-0.4-0.1-0.4
			c-0.1,0-0.2-0.2-0.3-0.2c-0.3,0.1-0.6,0.4-0.8,0.4c-0.4-0.1-0.9-0.2-1.1-0.4c-0.1-0.1,0.2-0.5,0.3-0.8c0.3-0.1,0.4-0.4,0.7-0.4
			c0.4-0.3,1,0,1.3-0.1c0.4-0.1,0.7-0.2,0.8-0.4c-0.1-0.4,0.3-0.8-0.2-1.1c-0.7,0-1.1,0.4-1.8,0c-0.2-0.2-0.5-0.5-0.4-0.8
			c0.7-0.6,1.2-0.4,2-0.6c0.2-0.1,1.2,0,1.7-0.4c0.1-0.2,0.1-0.4,0.1-0.6c-0.1-0.1-0.3-0.3-0.6-0.1c-0.5,0.2-1.2,0.5-1.5,0.4
			c-0.1-0.2-0.6-0.4-0.6-0.7C97.6,9,98.1,9,98.4,8.8c0.4-0.3,1.5-0.6,1.9-0.9c0.1-0.3,0.2-0.5,0.1-0.8c-0.6,0.4-1.6,0.2-2.2,0.5
			c-0.4-0.4-1.4,0.4-1.6-0.4c0.4-0.4,0.9-0.7,1.5-0.9c0.7-0.2,1.2-0.4,2-0.4c0.2-0.2,0.4,0,0.5-0.1c0.8-0.3,0.8-0.8,2.2-0.9
			C103.5,4.8,104.1,4.3,104.2,4.7z"/>
		<path class="st5" d="M136,6.2c0.3,0.5,0.8,1.2,0.4,1.9c-0.4,0.4-1.3,0.4-1.9,0.3c-0.4,0.2-0.5,0-0.9,0.3c-0.3-0.1-0.7,0-0.8,0.1
			c0,0.4,0.4,0.1,0.4,0.4c0.4,0.1,0.1,0.8,0.3,1.1c-0.1,1.8,0.2,2,0,3.6c0.4,0.5,0.2,2.1,0.2,2.6c-0.2,0.7-0.1,1.2-0.8,2
			c-0.5,0.2-1,0.9-1.6,0.6c-0.4-0.2-0.2-0.6-0.4-0.9c-0.2-0.2-0.7-0.5-1.1-0.6c-0.5-0.4-2.2,0.6-2.4-0.4c-0.1-0.1,0.3-0.5,0.4-0.6
			c0.4-0.3,0.9-0.2,1.4,0h1.2c0.8-0.2,0.9-1.2,1.1-2c-0.1-0.1-0.2-0.4-0.1-0.5c0-1,0.3-1.8,0.3-2.7c-0.1-0.5,0-1.1,0.1-1.4V9.7
			c-0.1-0.4-0.1-0.7-0.1-0.8c-0.3,0.1-1,0-1.2,0.4c-0.4,0-0.6,0.1-0.9-0.1c-0.3-0.3-0.8-0.8-0.6-1.2c0.5-0.4,1.7-0.1,2.4-0.5
			c0.5,0,0.9-0.6,1.3-0.5c0.6,0,1-0.4,1.5-0.5c0.4-0.2,0.7-0.7,1.3-0.4L136,6.2z"/>
		<path class="st5" d="M189.6,7.2c-0.2-0.2-0.2-0.4-0.5-0.5c-0.3-0.6-0.9-0.7-1.5-1c-0.5,0-1,0-1.3,0.3c-0.4,0.1-0.7,0.4-1.1,0.3
			c0.1-0.4,0.5-0.6,0.4-1.1h0.1c-0.1-0.6-0.2-0.8-0.6-1l-0.4-0.1l-0.9-0.7h-0.2v2.8c0.1-0.1,0.2-0.1,0.3,0l1.1,0.2v0.1
			c-0.4,0.1-0.8,0.3-1.3,0.4v1.2c0.7-0.3,1.3-0.5,1.8-0.7c0.4,0,1.1-0.3,1.2-0.1c0.2,0,0.1,0.4,0.2,0.6c-0.3,0.3-1.8,0.6-1.8,1.2
			c-0.3-0.2-0.8-0.5-1.2-0.4C183.7,9,183.7,9,183.6,9v2l0.4-0.1c0.6-0.1,0.7-0.7,1.3-0.8c0.3-0.3-0.4-0.4-0.2-0.8
			c0.4,0.4,0.7-0.2,1.3-0.2c0.5,0.2,1-0.7,1.5-0.4c0.6,0.1,0.9-0.4,1.3-0.6C189.4,7.4,189.9,7.7,189.6,7.2z M183.6,3.4
			c-0.7,0-1.9-0.1-2.1,0.3c-0.2,0.6,0.4,1.1,0.4,1.2c0.5,0.6,0,1.2-0.2,1.9c0.1,0.2,0.6,0.1,0.8,0c0.3,0,0.7-0.4,1.1-0.5V3.4
			L183.6,3.4z M183.6,6.9v1.2c-0.4,0.1-0.8,0.3-1.2,0.3c-0.7,0.2-1.2-0.1-1.8,0c-0.3,0.4,0.1,1.3-0.3,1.9c0.1,0.2,0.3,0,0.4,0
			c0.3-0.4,1.2-0.4,1.5-0.6V9.6c0.2-0.1,0.4-0.2,0.5-0.2c0.2-0.3,0.4-0.4,0.7-0.4v2h-0.2c-0.5,0-1.5,0.4-1.9,0.3
			c-0.2,0.2-0.4,0-0.5,0c-0.4,0-0.9-0.4-1.2-0.1c-0.3,0.5-0.5,0.7-1.3,0.7c-0.7-0.2-0.4-0.9-1.1-1.4c0-0.1-0.1-0.2-0.1-0.3
			c0-1.1,1.6-1.3,1.2-2.7c-0.1-0.4,0.1-0.7,0.4-0.9c0.4,0.1,0.8,0.4,1.1,0.6c0.2,0.2,0.3,0.4,0.4,0.6C181.2,8,182.5,7.4,183.6,6.9z"
			/>
		<path class="st5" d="M162.5,8.6c-0.7-0.7-0.8-1.1-1.2-1.2c-0.2,0.1-0.9,0.1-1.2,0.2c-0.2,0-0.4,0.2-0.4,0.3
			c-0.3-0.1-1.3,0.3-1.4,0V7.6l0.3-0.8c0.2-0.6,0.6-0.7,0.7-1c0.4-2,1.2-1.5,1.6-2.3c-0.1-0.7-0.6-2-1.3-2.3c-0.4,0-0.9,0.4-1.2,0.6
			c-0.5,0.4-0.8,0.2-1.4,0.5c-0.4,0.1-0.5,0-0.8,0.2c-0.4,0.3,0.4,1.3,0.6,1.3c0.3,0.2,0.5-0.2,0.9-0.1c0.3,0.4-1.2,0.3-1.5,0.8
			c-0.1,0-0.1,0-0.1,0v0.7c0.1-0.1,0.2-0.1,0.5,0.2c0,0,0.5-0.2,0.6-0.1c0.2,0.4-0.6,0.4-1.2,0.5v1.3c0.1,0.1,0.4,0.2,0.4,0.3
			c0,0.1,0.3,0.5,0.2,0.6c-0.2,0.2-0.4,0.3-0.5,0.3v1.4c0.1,0,0.3,0,0.4,0c0.4-0.1,0.7-0.4,1.2-0.2c0.4-0.1,1.4-0.4,1.7-0.3
			c0.2,0.3,0,0.4-0.1,0.8c0.1,0.4-0.1,0.5-0.3,1.1c0.4,0.4,0.8,0.6,1.2,0.5c0.4-0.2,0.8-0.8,1.3-0.9c0.4-0.7,0.9-0.4,1-1.1
			C162.4,9.7,162.6,8.8,162.5,8.6L162.5,8.6z M156,2.3V1.2c0,0.1,0,0.1,0,0.1C156.1,1.7,156.1,2,156,2.3z M156,4.6
			c-0.4-0.2-0.3-0.3-0.6-0.4c-0.6,0.1-0.8,0.1-1-0.3l0.2-0.3c0.4-0.4,1.1-0.8,1.4-1.4V1.2c-0.2-0.3-0.5-0.8-0.8-0.8
			c-0.3,0-0.5,0.4-0.7,0.6c-0.2,0.3-0.5,1-0.8,1.3c-0.4,0.6-0.9-0.5-1.7,0.4c-0.3,0.2,0.3,1,0.4,1.2c0.2,0-0.1,0.4-0.1,0.5
			c-0.1,0.3-0.2,0.2-0.6,0.5c-0.1,0.3,0,0.6,0.3,0.7c0.7-0.1,1.1-1.2,1.4-1.2c0.3,0,0.6,0.4,0.6,0.7c0,0.3-0.4,0.4-0.4,0.5
			c-0.2,0.2-0.8,0.2-1.3,0.2c-0.1,0-0.4,0.2-0.5,0.4c-0.1,0.5,0.4,0.5,0.8,0.9c0.1,0.1-0.6,0.7-0.1,0.8c0.1,0,0.6-0.2,0.9-0.2
			c0.1,0.2,0.4,0.6,1.4,0.9c-0.2,0.2-2,0.3-3.2,0.6c-0.4,0.2-0.5-0.1-0.5,0c-0.3,0.1,0.2-0.5-0.1-0.6c-0.1-0.1-0.4-0.3-0.4-0.4
			c0.2-0.1-0.2-0.8,0.1-0.6c1.2,1,1.1-0.5,1-0.8c0-0.4-0.4,0.3-0.6,0.1c-0.2-0.4-0.3-0.1-0.3-0.4c0.4-0.1,0.7-0.3,0.8-0.5
			c0.1-0.1,0-0.4-0.1-0.5c-0.5-0.5-1.2,0.1-1.2-0.1c-0.1-0.1-0.7-0.3,0.1-0.4c0.8-0.3,1.8-0.9,1.3-1.7c-0.2-0.3,0-0.9-0.4-0.9
			c-0.3,0.1-0.8,0.8-1,1.1c-0.2,0.1-0.4,0.4-0.5,0.3c-0.4,0.8-1.2,0.2-1.5,1c-0.2,0.5-0.4,0.7,0.5,0.9c0.4,0.1,0.1,1.5,0.2,1.8
			c0.1,0.4,0.2,0.9,0.2,1.2c-0.2,0.4,1.2,0.5,1.2,0.9c-0.2,0.1-1.7,0.4-1.9,0.4c-0.3-0.4-0.5-1.2-1.2-1.2l-0.5,0.6
			c-0.2,0.3-0.1,1.2-0.1,1.7c-0.1,0.2-0.3,0.4-0.4,0.6c0.1,0.6-0.5,1.2-0.7,1.7c0,0.4,0.2,1,0.5,1.2c0.5,0,1.1-0.5,1.3-0.7
			c0.1-0.5,0.8-0.6,0.8-1.2c0.2-0.4,0-1.3,0.2-1.8h0.4c0.4,0,0.7,0.3,1.2,0c0.2,0.1,0.4,0.1,0.5,0.2c0.7,0,1.3-0.3,1.8-0.3
			c0.8-0.3,1.9-0.3,2.7-0.4c0.4-0.2,0.8-0.2,1.2-0.2V8.4c-0.2,0-0.2,0-0.2,0c-0.1,0-0.4,0.3-0.4-0.4c0.1-0.4-1.1-0.5-0.6-1.9
			c0.2-0.3,0.5-0.4,0.6-0.4c0.3-0.1,0.4-0.3,0.5-0.4V4.6L156,4.6z M156,5.9v1.3c-0.2-0.1-0.3-0.1-0.3-0.1c-0.1-0.1-0.4-0.5-0.3-0.7
			C155.5,6.2,155.7,6,156,5.9z"/>
		<path class="st5" d="M176,8.3c0-0.3,0.2-0.6,0.4-0.9c0.5-0.7,1.6-0.9,1.7-1.7V5.6c0-0.2-0.1-0.4-0.2-0.6c-0.5-0.3-1-0.5-1.5-0.5
			C176,4.5,175.4,4.7,175,5v1.5c0.2,0,0.4-0.1,0.5,0v0.4c-0.2,0.2-0.2,0.8-0.5,0.9v0.1v1c0.3,0.2,0.5,0.7,0.6,1.1
			c-0.1,0.3-0.4,0.2-0.6,0v3.7c0.3-0.1,0.8-0.1,0.9-0.3c0.4-0.4,0.7-0.6,1.1-1.2c0.4-0.5,0.2-1.3,0.1-2.1C176.8,9.3,176.2,9,176,8.3
			z M175,5c-0.5,0.3-1.1,0.5-1.4,0.9c-0.6,0.4-1.9,0.8-2.7,1.1c-0.2,0.3,0.4,0.8,0.7,0.9c0.3,0.1,0.4,0,0.5-0.1
			c0.4-0.2,0.5-0.4,0.8-0.4c0,1.1-0.1,3.4-0.5,4.2c0.1,0.9-0.2,1.6-0.4,2.4c0,0.2-0.1,0.4-0.1,0.5l-0.1,0.3
			c-0.1,0.7-0.4,1.4-0.4,2.1l0,0l-0.2,0.2c0,0.9,0,0.8,0.1,1.7c0.1,0.4,0.2,1.2,0.7,1.3c1.2,0.1,1.3-1,1.9-1.7c0-0.9,0-1.1-0.2-2V14
			c0.1-0.2,0.2-2.2,0.4-2.1c0,0,0.4,0.1,0.4,0.4c-0.1,0.4-0.3,1.4,0.4,1.4l0,0V9.9h-0.1c0-0.1-0.4,0.1-0.4-0.1c-0.3-0.3,0-0.6,0.4-1
			c0.1,0,0.1,0,0.2,0v-1c-0.3,0.4-0.5-0.3-0.6-0.4c-0.2-0.2-0.2-0.5-0.3-0.8c0.3-0.1,0.2-0.2,0.4-0.2s0.4,0,0.5-0.1V5z"/>
		<path class="st5" d="M55.8,3.1c-0.3-0.2-0.3,0-0.7,0.2c0,0-0.1,0-0.2,0c-0.1,0.2-0.7-0.4-1-0.4c-0.4-0.3-1.2,0-1.6,0.1
			c-0.3,0-0.4,0.1-0.5,0.1v3c0.2-0.1,0.4-0.2,0.4,0c0,0.2-0.1,0.3-0.2,0.4c-0.1,0.1-0.2,0.2-0.3,0.2V8c0.6,0,1.2,0.1,1.7-0.2
			c0.3-0.1,0.6-0.4,0.8-0.6c0-0.1,0.4-0.5,0.3-0.6c-0.1-0.1-0.3-0.4-0.7-0.4c-0.2,0-0.5,0-0.7,0c-0.2-0.1-0.4,0.1-0.4-0.1
			c-0.2-1.1,0.9-0.6,1.4-0.9c0.8-0.4,0.8-0.4,1.1-1.1C55.3,3.8,55.9,3.6,55.8,3.1z M51.8,3c-0.2,0.1-0.4,0.2-0.8,0.1
			c-0.5-0.1-0.3-0.6-0.5-1c0.2-0.4-0.3-0.8-0.2-1.2c-0.2-0.2-0.4-0.6-0.5-0.6l-0.1-0.1L49.4,0l-0.5,0.4c-0.2,0.3-0.4,0.7-0.4,1.1
			c0.1,0.8,0.2,1.5,0.1,2.6c-0.1,0.2-0.3,0.3-0.5,0.3c-0.2,0-0.4,0.1-0.5,0.2v1.3c0,0,0-0.1,0.1-0.1c0.2-0.1,0.3-0.4,0.6-0.3h0.3
			c0.1,0.3,0,0.8-0.2,1.1c-0.1,0.2-0.5,0.4-0.7,0.4c0,0.1-0.1,0.1-0.1,0.1v0.8c0.1,0,0.2,0,0.3,0c0,0.1-0.1,0.2-0.3,0.3v1.8
			c0.3-0.1,0.7-0.5,0.9-0.2c-0.2,0.9,0.1,1.6-0.1,2.4c-0.1,1.2-0.1,2.3-0.1,3.5c-0.1,1.2-0.1,2.5-0.4,3.5c0.1,0.3-0.1,1.8,0.3,1.9
			c0.5,0.1,1.2-0.6,1.7-0.8c0.1-0.6,0.7-0.8,0.7-1.4c0-0.3,0-0.6-0.1-0.8c0.4-1,0.1-1.8,0.3-2.7c0.1-0.4-0.1-0.8,0.2-1.2
			c0-0.9,0.1-1.5-0.1-2.4c-0.3-0.8-0.1-2.1,0-2.9c0.1-0.4,0.4-0.6,0.8-0.7h0.3V6.6c-0.2,0-0.3,0-0.4,0.1c-0.1,0-0.2-0.1-0.2-0.3h0.1
			c0.1-0.3,0.2-0.2,0.4-0.3c0,0,0-0.1,0.1-0.1V3z M47.6,4.4c-0.2,0-0.3,0.1-0.4,0.1c-0.3,0.2-0.5,0.6-0.8,0.7
			c-0.2,0.2-0.4,0.9-0.6,1.2c-0.2,0.1-0.6,0.2-0.5-0.2c0.1-0.3-0.2-0.3,0-0.4c-0.1-0.8,0.3-1.6-0.1-2.1c-0.2,0-0.4-0.5-0.4-0.4
			c-0.3-0.1-0.5-0.4-0.7-0.4c-0.1,0.2-0.3,0.2-0.2,0.4l-0.1,1c0,0.1,0.2,0.1,0,0.3c0,0.3-0.2,0.5-0.2,0.8c0.1,0.2-0.4,0.2-0.5,0.6
			c-0.4,0.3-0.4,1.2-0.4,1.6c-0.2,0.2,0,0.6-0.3,0.6v0.3c0,0.2-0.2,0.3-0.1,0.4c0.1,0-0.2,0.3-0.3,0.4c0,0.4,0,0.8,0.2,1.2l0.5,0.4
			c0.4,0.2,0.5,0.1,0.9,0c0.5-0.3,0.8-0.8,1.1-1.1l0.6,0.5c1,0.4,1.3-0.4,2.2-0.4c0,0,0,0,0.1-0.1V8c-0.3,0.1-0.6,0.1-0.6,0.3
			c-0.4,0.2-0.8,0.2-1.2,0.3c0-0.7,1.1-0.8,1.8-0.8V6.9c-0.4,0.2-1.2-0.1-1-0.2c0.4-0.5,0.6-1,1-1V4.4z"/>
		<path class="st5" d="M82.6,10.3V9.8c-0.1-0.2-0.2-0.4-0.2-0.4c-0.2-0.4-0.1-0.7-0.2-1.2c-0.4-0.4-0.1-1-0.3-1.6
			c0.1-0.3-0.5-2-0.4-2c0.1-1-0.1-2-0.3-2.5C80.8,2,80.4,1.7,80,1.5c-0.3-0.1-0.2-0.2-0.6-0.2c-0.4-0.1-0.7-0.2-1.2-0.3
			c-0.2-0.3-0.9-0.4-1.2-0.4C77,0.9,76.5,0.9,76.3,1v1.4c0.5-0.1,1.1-0.2,1.7-0.3C79.7,2.5,79.8,3,79.7,4c0.2,0.4,0,0.9,0.2,1.2
			c0,0.1,0.1,0.4,0,0.6c0.3,0.9,0.4,1.5,0.3,2.4c-0.4-0.4-0.4-1.2-0.8-1.5c-0.4,0-0.7-0.2-1-0.3c-0.5,0.2-1.2,0.1-1.8,0.4
			c-0.2,0.2,0,0.4,0.1,0.4c0.5,0,1.2,0.5,1.2,1.1c0,0.2,0,0.5-0.3,0.6c-0.2,0.1,0.1,0.3,0.1,0.4c-0.1,0.4-0.1,0.4-0.4,0.5
			c-0.3,0.1-0.4,0-0.5-0.3c-0.3-0.3-0.4-0.5-0.5-0.8v5.1c0.3-0.3,0.4-1,0.6-1.3c0.5,0,0.3,0.4,0.6,0.7c0.2,0.4,1.1,0.4,1.3,0.8
			c0.2,0.1,0.3,1.1,0.8,0.4c0.4-0.4-0.4-1.3-0.3-2.1c-0.1-0.6-0.4-0.1-0.6-0.1c-0.5-0.2-0.7-0.4-0.9-0.9c0.4-0.8,0.9-1.4,0.2-2.2
			c0.7-0.6,1.3,0,1.7,0c0.2,0,0.4-0.6,0.7-0.4c0.3,1.9,0.4,4.1,0.1,5.8c0.3,0.3-0.2,0.4,0,0.8c0,0.3,0.1,0.8-0.2,1.2
			c-0.1,0.7-0.5,1-1.1,1.3c0,0.1-0.4,0.4-0.6,0.4c-0.3,0.4-1.2-0.4-1.6,0.1c-0.3,0.4,0.5,0.7,0.9,0.8c0.4,0.4,0.9,0.4,1.2,0.3
			c0.4,0,0.7-0.1,1.2-0.1c0.4-0.1,1.1-0.1,1.3-0.5c0.4-0.2,0.4-1.1,0.6-1.5c0.5-1.6,0.2-2.5,0.4-4c-0.2-0.3,0.1-0.4,0-0.6l0,0
			c0-0.5,0.1-1,0-1.4C82.6,11.1,82.6,10.5,82.6,10.3L82.6,10.3z M76.3,17.4v-1.7c0.1-0.1,0.3-0.2,0.3-0.2c0.3-0.1,0.5,0.1,0.6,0.1
			c0.2,0.3,0.4,0.5,0.7,0.8c0.1,0.3,0.2,0.5,0,0.8C77.7,17.5,76.9,17.4,76.3,17.4L76.3,17.4z M76.3,6.7V6.4
			C76.3,6.6,76.3,6.6,76.3,6.7z M76.3,1c-0.1,0.1-0.2,0.1-0.3,0.2c-0.4,0.2-0.5-0.1-0.9,0.2c0,0.1-0.4,0.1-0.4,0.1
			c-0.1,0.1-0.1,0.1-0.2,0.2v1.1c0.1,0,0.2,0,0.4-0.1c0.4,0,0.8-0.2,1.2-0.2h0.2V1L76.3,1z M74.5,18L74.5,18
			c0.4-0.1,0.6-0.5,1.1-0.5c0.2-0.1,0.4-0.1,0.7-0.1v-1.7c-0.4,0.1-0.7,0.3-0.9,0.2c-0.3-0.1-0.5,0.1-0.9,0.2V18L74.5,18z
			 M74.5,15.3c0.4-0.2,0.7-0.3,0.8-0.5c0.4-0.3,0.6-0.6,1-0.9l0,0V8.9V8.8c-0.4-0.3-0.4-1-0.8-1.3c0-0.3,0.6-0.4,0.7-0.6
			c0,0,0.1,0,0.1-0.1V6.4c-0.1-0.1-0.1-0.2-0.2-0.3c-0.2-0.2-0.5-0.5-0.8-0.6c-0.1-0.1-0.5,0.1-0.7,0c0-0.1-0.1-0.1-0.1-0.1v3.3
			C74.6,8.8,74.6,9,74.7,9c0.3,0,0.2,0.3,0.3,0.4c0.2,0.1,0.3,0.2,0.4,0.4c0.2,0.3,0.4,0.2,0.6,1c-0.2,0.4-0.4,0.4-0.6,0.7
			c-0.2,0.1-0.5,0.2-0.8,0.3V15.3L74.5,15.3z M74.5,10.7v-0.4C74.6,10.5,74.5,10.5,74.5,10.7L74.5,10.7z M74.5,10.3V9.7
			c0,0.1,0.1,0.1,0.1,0.2C74.4,10,74.6,10.2,74.5,10.3z M74.5,1.6C74.1,2,73.4,2.1,73,2.4c-0.1,0-0.2,0-0.3,0l-0.2,0.2
			c-0.4-0.2-0.8,0.2-1.1,0.4c-1,0.6-1.2,0.7-2,1c-0.1,0.1-0.3,0.4-0.1,0.4c0.4,0.3,1.2,0.3,1.5,0c0.3,0,0.6-0.2,0.9,0.2
			c0.1,0.5,0.2,0.9,0.6,1.1c0.5,0.4,0.5,0.3,0.7,0.8l0,0v0.1c-0.2,0.4-1.1,0.9-1.2,1.2c-0.1-0.1-0.7,0.5-0.7,0.4
			c-0.8,0.1-0.9,0.2-1.7,0c-0.3-0.4,0-0.8,0-1.2c0-0.4,0.4-1.4,0-1.7c-0.4-0.1-0.7,0.6-1,0.8c0,0.3-0.3,0.4-0.2,0.7
			c-0.2,0.1-0.2,0.4-0.2,0.7c-0.2,0.2-0.2,1.1-0.3,1.3c-0.3,0.5-0.4,1.1-0.7,1.5c-0.2,1-0.4,1.4-0.4,2.5c0,0.4-0.2,0.8-0.4,1.1
			c-0.1,0.6-0.3,1.5,0.2,2c0.2,0.4,0.5,0.5,0.6,0.9c0.4,0.2,0.4,0.7,0.9,0.6c0.4-0.3,0.8-0.9,0.7-1.4c0.3-0.8-0.4-1.6-0.2-2.3
			c0-1.7,0.4-2.9,0.6-4.5C69.4,9,69.6,9,69.8,9l1.2,0.2c0.4,0.2,0,0.4,0,0.6c-0.1,0.6-0.6,0.4-0.8,1c0.1,0.2,0.7,0.9,0.9,1
			c0.8,0,0.6-0.4,1.2-0.5c0.2,0.4-0.3,0.8-0.4,1.1c-0.1,0-0.1,0.1-0.2,0.3c-0.4,0.4-0.4,0.3-1,0.5c-0.3,0-0.6-0.3-0.8-0.4
			c-0.1,0.1-0.4-0.1-0.5,0.1c-0.3,0.4,0,0.6,0.2,1c0.4,0.3,0.5,0.7,1,1c0.5,0.2,0.7,0,1.2,0.3c0.4-0.1,1.2-0.7,1.7-0.9
			c0.3,0.4-0.5,0.8-0.6,1c-0.3,0.2-0.4,0.5-0.6,0.6c-0.3,0.5-1.2,0.2-1.5,0.5c-0.3,0.4-0.7,1-0.5,1.5c0.5,0.7,1,0.9,2.6,0.7
			c0.4-0.4,1.2-0.4,1.8-0.5V16c-0.4,0.2-0.9,0.3-1-0.1c0.1-0.3,0.5-0.4,1-0.6v-3.5c-0.3,0.1-0.5,0.2-0.8,0.4
			c-0.1-0.4,0.6-0.8,0.7-1.2c0-0.1,0-0.2,0.1-0.3v-0.4l0,0l0,0V9.7c-0.1-0.2-0.4-0.4-0.4-0.5c-0.5,0-0.9,0.1-1-0.2
			c0-0.3-0.1-0.4,0.2-0.6c0.4-0.3,0.8-0.3,1.1,0.2c0.1,0,0.1,0,0.2,0.1V5.4c-0.4-0.3-0.6-0.4-0.8-1c-0.4-0.3-1.2,0.1-1.4-0.4
			c0.3-0.7,0.9-0.5,1.3-1C74,3,74,2.7,74.3,2.8c0-0.1,0.1-0.1,0.2-0.2V1.6z"/>
		<path class="st5" d="M158.2,11c0.2,0.4,0.2,0.7,0.1,1.2c-0.3,0.1-0.5,0.3-1,0.4c-0.3,0.2-1.2,0.6-1.7,0.9
			c-0.5,0.3-0.6,0.4,0.3,0.6c0.8-0.1,1.5-0.2,2.3-0.4c0.6,0.1,1.1-0.3,1.5,0.2c0.3,0.2,0.5,1,0.4,1.2c0,0.4-0.7,0.3-1.1,0.4
			c-0.7,0.1-1.3-0.3-2-0.3c-0.4-0.1-0.8,0.2-1.3,0.2c-0.5,0.4-0.2,1.2-0.1,1.9c0.1,0.2,0,0.4,0,0.7c-0.1,0.8-0.3,1.6-1,1.9
			c-0.2,0.1-0.4,0.4-0.6,0.4c-0.5,0.3-1.1,0-1.5-0.2c-0.4-0.1-0.8-0.3-1.2-0.4c-0.4-0.3-1.3,0-1.6-0.3c-0.1-0.2,0.1-0.4,0.1-0.4
			c0.4-0.2,1.6-0.1,2-0.3c0.3,0.2,1.1-0.3,1.3-0.2c0.3-0.4,0.2-0.8,0.2-1.3c0.3-0.5,0.4-0.8,0.2-1.4c-0.4-0.2-2,0.5-2.4,0.4
			c-1-0.1-1.1,0-2-0.2c0-0.4-0.9-0.4-0.5-1.1c0,0,0.1,0.1,0.1,0c0.9-0.2,2.2-0.2,3.1-0.2l1.3-0.2c0.3-0.2-0.1-0.4,0-0.8l0.2-0.3
			c0.3-0.1,0.8-0.1,1.1-0.2c0.4,0,0.6-0.3,0.7-0.4c0.2-0.3,0.5-0.7-0.2-0.7c-0.2-0.1-2,0.4-2.3,0.5c-0.4,0.4-0.1,0.2-0.7,0.4
			c-0.2-0.1-1-0.3-1.4-0.5c-0.3-0.2-0.4-0.4-0.4-0.5c0.2-0.4,0.9-0.3,1.2-0.4l0.1,0.1c1.2,0,3-0.6,4-1.2c0.4,0.1,0.8,0,1.1,0
			C157.1,10.5,157.9,10.3,158.2,11z"/>
		<path class="st5" d="M186.6,11.9c0.1,0.2-0.3,0.7-0.6,1c-0.4,0.4-0.8,0.4-1.1,0.4c-0.2,0.1-1.2,0-1.2,0.1c0,0.1-0.1,0.2,0.1,0.3
			c0.2,0.2,0.4,0,0.5,0.1c0.2,0,0.4,0.8,0.4,0.9c-0.3,0.3-0.1,0.5-0.3,0.8c0,0.4-0.5,1.7-0.3,1.9c0.9,0.3,1.3,0.2,2.1-0.3
			c0.4,0.1,1.6,0.3,1.9,0c0.6-0.5,0.3-1.7,1.6-2.2c0.4-0.1,0.3,0.2,0.4,0.3c-0.4,1,0.3,1.2,0.1,1.8c0.3,0.4,0.3,0.4,0.6,0.6
			c0.1,0.4,0.3,0.8-0.1,1.1l-0.7,0.2l-0.8,0.3c-0.5,0-1.2,0.1-1.8-0.1c-0.7,0.1-1.5,0-2.1,0.3c-0.4,0-1.3-0.1-1.8,0.1
			c-0.4,0-0.8-0.4-1.2-0.5c-0.4-0.5,0-1.9,0.1-2.7l-0.1-0.6c-0.3,0.1-0.8,0.8-1.1,1c0,0.3-0.4,0.3-0.4,0.5c-0.5,0.4-0.3,1.3-1.1,1.5
			c-0.4,0.1-1.1,0-1.4,0.1c-0.3-0.1-1.5,0.6-1.6,0.3c0.1-0.3,0.1-0.4,0.3-0.6l0.4-0.7c0.2-0.1,0.3-0.2,0.4-0.4
			c0.4-0.4,0.7-0.4,1-0.9c0.2-0.1,0.5-0.8,0.7-0.9c0.4-0.4,1-0.6,0.8-1.2c0-0.3-0.5-0.2-0.7-0.1c-0.2,0-0.4,0.1-0.4,0.2
			c-0.3-0.1-1.3,0.4-1.4,0.2c-0.3-0.5,1.2-1.5,1.4-1.9c0.2-0.1,0.4-0.3,0.7-0.4c0.4,0.1,0.9-0.1,1.3-0.2c0.5-0.4,2.2-0.3,2.7-0.6
			C184.7,11.4,186.3,11.5,186.6,11.9z"/>
		<path class="st5" d="M105,1c0.1,0.2,0,0.4,0.2,0.6c0.1,0.3,0.2,0.6,0.1,0.9c-0.2,0.3-0.7,0.4-0.8,0.5c-0.3,0.3-0.2,0.4-0.5,0.6
			c-0.4,0-1.2,0.2-1.4,0.3h-0.3c-0.5,0.4-0.9,0.6-1.7,0.6c-0.3,0-0.3-0.1-0.4-0.3c0.4-0.4,0.8-0.7,1.3-1.1c0.2-0.4,0.3-0.4,0.4-0.7
			c0.1-0.3,0.8-0.8,0.8-1.1c0.4-0.2,0.4-0.2,0.4-0.4c0.1-0.3,0-0.7,0.4-0.7c0-0.2,0.2-0.2,0.3-0.3C104.3,0.2,104.7,0.4,105,1z"/>
	</g>
</g>
</svg>
